<svg width="800" height="600" viewBox="0 0 800 600" xmlns="http://www.w3.org/2000/svg" role="img" aria-label="Cover 057 — Not on the Table: What the Trump-Xi Summit Told the Battery Industry">
  <defs>
    <pattern id="dots" width="26" height="26" patternUnits="userSpaceOnUse">
      <circle cx="13" cy="13" r="1.1" fill="#1B2A33"/>
    </pattern>
    <linearGradient id="glow" x1="0" y1="0" x2="1" y2="1">
      <stop offset="0" stop-color="#C9F24B" stop-opacity="0.08"/>
      <stop offset="0.6" stop-color="#C9F24B" stop-opacity="0"/>
    </linearGradient>
  </defs>

  <rect width="800" height="600" fill="#0C1017"/>
  <rect width="800" height="600" fill="url(#dots)"/>
  <rect width="800" height="600" fill="url(#glow)"/>

  <!-- ghost issue number -->
  <text x="796" y="196" text-anchor="end" font-family="Georgia,serif" font-size="168" fill="#C9F24B" opacity="0.06">057</text>

  <!-- corner ticks -->
  <g stroke="#C9F24B" stroke-width="2" opacity="0.85">
    <path d="M18 44 V26 a8 8 0 0 1 8 -8 H44" fill="none"/>
    <path d="M782 44 V26 a8 8 0 0 0 -8 -8 H756" fill="none"/>
    <path d="M18 556 V574 a8 8 0 0 0 8 8 H44" fill="none"/>
    <path d="M782 556 V574 a8 8 0 0 1 -8 8 H756" fill="none"/>
  </g>

  <!-- masthead -->
  <text x="48" y="52" font-family="Courier,monospace" font-size="13" letter-spacing="4" fill="#8E97A8">CHINA BATTERY BRIEF</text>
  <text x="752" y="52" text-anchor="end" font-family="Courier,monospace" font-size="13" letter-spacing="2" fill="#C9F24B">No. 057 · THU 06:00 UTC</text>
  <line x1="48" y1="72" x2="752" y2="72" stroke="#1B2A33" stroke-width="1"/>

  <!-- title -->
  <text x="48" y="170" font-family="Georgia,serif" font-size="64" fill="#F4F0E6">Not on</text>
  <text x="48" y="246" font-family="Georgia,serif" font-size="64" fill="#F4F0E6">the Table</text>
  <text x="48" y="300" font-family="Georgia,serif" font-style="italic" font-size="21" fill="#C9F24B">The summit's eight outcomes never mention batteries</text>

  <!-- deal sheet -->
  <text x="48" y="340" font-family="Courier,monospace" font-size="12" letter-spacing="2.2" fill="#8E97A8">THE SUMMIT DEAL SHEET · SEP 23–25, 2026</text>

  <g font-family="Courier,monospace" font-size="15" letter-spacing="1.2">
    <text x="48" y="376" fill="#F4F0E6">$30BN TARIFF CUTS</text>
    <text x="752" y="376" text-anchor="end" fill="#F4F0E6">NO BATTERIES ON EITHER LIST</text>
    <line x1="48" y1="391" x2="752" y2="391" stroke="#1B2A33" stroke-width="1"/>

    <text x="48" y="418" fill="#F4F0E6">RARE EARTHS</text>
    <text x="752" y="418" text-anchor="end" fill="#F0A832">PAUSED, NOT SETTLED</text>
    <line x1="48" y1="433" x2="752" y2="433" stroke="#1B2A33" stroke-width="1"/>

    <text x="48" y="460" fill="#F4F0E6">INVESTMENT COUNCIL</text>
    <text x="752" y="460" text-anchor="end" fill="#F0A832">MECHANISM, NO APPROVALS</text>
    <line x1="48" y1="475" x2="752" y2="475" stroke="#1B2A33" stroke-width="1"/>

    <text x="48" y="502" fill="#F4F0E6">CLIMATE</text>
    <text x="752" y="502" text-anchor="end" fill="#B0432F">NOT MENTIONED</text>
    <line x1="48" y1="517" x2="752" y2="517" stroke="#1B2A33" stroke-width="1"/>

    <text x="48" y="544" fill="#B0432F">BATTERIES · EV · ESS</text>
    <text x="752" y="544" text-anchor="end" fill="#B0432F">—  ABSENT</text>
  </g>

  <!-- accent block -->
  <rect x="48" y="556" width="26" height="12" fill="#C9F24B"/>
  <rect x="84" y="556" width="3" height="12" fill="#C9F24B" opacity="0.35"/>
  <text x="128" y="566" font-family="Courier,monospace" font-size="11" letter-spacing="1.2" fill="#8E97A8">NEXT: APEC SHENZHEN NOV · G20 MIAMI DEC · TRUCE EXPIRES 2027-01-10</text>

  <text x="48" y="588" font-family="Courier,monospace" font-size="11" letter-spacing="2" fill="#8E97A8">CBB · WEEKLY INTELLIGENCE · EVERY THURSDAY 06:00 UTC</text>
</svg>
