<svg width="800" height="600" viewBox="0 0 800 600" xmlns="http://www.w3.org/2000/svg" role="img" aria-label="Cover 051 — The Thirty-Percent Ceiling: Japan's Capacity Market Does the Allocating">
  <defs>
    <pattern id="dots" width="26" height="26" patternUnits="userSpaceOnUse">
      <circle cx="13" cy="13" r="1.1" fill="#1B2A33"/>
    </pattern>
    <linearGradient id="glow" x1="0" y1="0" x2="1" y2="1">
      <stop offset="0" stop-color="#F0A832" stop-opacity="0.10"/>
      <stop offset="0.6" stop-color="#F0A832" stop-opacity="0"/>
    </linearGradient>
  </defs>

  <rect width="800" height="600" fill="#0C1017"/>
  <rect width="800" height="600" fill="url(#dots)"/>
  <rect width="800" height="600" fill="url(#glow)"/>

  <!-- ghost issue number -->
  <text x="796" y="196" text-anchor="end" font-family="Georgia,serif" font-size="168" fill="#F0A832" opacity="0.06">051</text>

  <!-- corner ticks -->
  <g stroke="#F0A832" stroke-width="2" opacity="0.9">
    <path d="M18 44 V26 a8 8 0 0 1 8 -8 H44" fill="none"/>
    <path d="M782 44 V26 a8 8 0 0 0 -8 -8 H756" fill="none"/>
    <path d="M18 556 V574 a8 8 0 0 0 8 8 H44" fill="none"/>
    <path d="M782 556 V574 a8 8 0 0 1 -8 8 H756" fill="none"/>
  </g>

  <!-- masthead -->
  <text x="48" y="52" font-family="Courier,monospace" font-size="13" letter-spacing="4" fill="#8E97A8">CHINA BATTERY BRIEF</text>
  <text x="752" y="52" text-anchor="end" font-family="Courier,monospace" font-size="13" letter-spacing="2" fill="#F0A832">No. 051 · THU 06:00 UTC</text>
  <line x1="48" y1="72" x2="752" y2="72" stroke="#1B2A33" stroke-width="1"/>

  <!-- title -->
  <text x="48" y="208" font-family="Georgia,serif" font-size="76" fill="#F4F0E6">The Thirty-</text>
  <text x="48" y="292" font-family="Georgia,serif" font-size="76" fill="#F4F0E6">Percent Ceiling</text>
  <text x="48" y="340" font-family="Georgia,serif" font-style="italic" font-size="22" fill="#5ADFC3">Japan's capacity market does the allocating</text>

  <!-- copper accent block -->
  <rect x="48" y="390" width="26" height="120" fill="#F0A832"/>
  <rect x="84" y="390" width="3" height="120" fill="#F0A832" opacity="0.35"/>

  <!-- auction listing -->
  <g font-family="Courier,monospace" font-size="14" letter-spacing="1.5">
    <text x="128" y="426" fill="#F4F0E6">ROUND 3 · JAPAN CAPACITY</text>
    <text x="420" y="426" fill="#8E97A8">—</text>
    <text x="448" y="426" fill="#F4F0E6">1,251 MW · 19</text>

    <text x="128" y="462" fill="#F4F0E6">SINGLE-FOREIGN-CELL</text>
    <text x="420" y="462" fill="#8E97A8">—</text>
    <text x="448" y="462" fill="#F0A832">≤ 30% · HARD</text>

    <text x="128" y="498" fill="#F4F0E6">REPT KANUMA · JAPAN</text>
    <text x="420" y="498" fill="#8E97A8">—</text>
    <text x="448" y="498" fill="#F4F0E6">1.99 MW · 8.35 MWH</text>
  </g>

  <line x1="48" y1="548" x2="752" y2="548" stroke="#1B2A33" stroke-width="1"/>
  <text x="48" y="566" font-family="Courier,monospace" font-size="11" letter-spacing="2" fill="#8E97A8">CBB · WEEKLY INTELLIGENCE · EVERY THURSDAY 06:00 UTC</text>
</svg>
